HIERARCHY
ROOT root
{
	OFFSET	0	13.1	24.9
	CHANNELS 6  Xposition Yposition Zposition Xrotation Yrotation Zrotation
	JOINT spine_1
	{
		OFFSET	0	9.99999	0
		CHANNELS 3  Xrotation Yrotation Zrotation
		JOINT spine_2
		{
			OFFSET	0	112	-10
			CHANNELS 3  Xrotation Yrotation Zrotation
			JOINT spine_3
			{
				OFFSET	0	206.5	19.3
				CHANNELS 3  Xrotation Yrotation Zrotation
				JOINT spine_4
				{
					OFFSET	0	110.4	14.6
					CHANNELS 3  Xrotation Yrotation Zrotation
					JOINT neck_1
					{
						OFFSET	0	71.8	-50.3
						CHANNELS 3  Xrotation Yrotation Zrotation
						JOINT neck_2
						{
							OFFSET	0	86.2	-25.8
							CHANNELS 3  Xrotation Yrotation Zrotation
							JOINT head_ee
							{
								OFFSET	0	179.8	-8.7
								CHANNELS 3  Xrotation Yrotation Zrotation
								End Site
								{
									OFFSET	1	0	0
								}
							}
						}
					}
					JOINT left_clavicle
					{
						OFFSET	-43.2	22.4	-70.8
						CHANNELS 3  Xrotation Yrotation Zrotation
						JOINT left_shoulder
						{
							OFFSET	-93.9	-5.79999	48.7
							CHANNELS 3  Xrotation Yrotation Zrotation
							JOINT left_elbow
							{
								OFFSET	-291.4	-30.8	15.2
								CHANNELS 3  Xrotation Yrotation Zrotation
								JOINT left_lowarm_twist
								{
									OFFSET	-110.7	-3.89999	13.6
									CHANNELS 3  Xrotation Yrotation Zrotation
									JOINT left_hand
									{
										OFFSET	-110.7	-3.89999	13.6
										CHANNELS 3  Xrotation Yrotation Zrotation
										JOINT left_ee
										{
											OFFSET	-80.8	-5.10001	12.1
											CHANNELS 3  Xrotation Yrotation Zrotation
											End Site
											{
												OFFSET	1	0	0
											}
										}
									}
								}
							}
						}
					}
					JOINT right_clavicle
					{
						OFFSET	43.2	22.4	-70.8
						CHANNELS 3  Xrotation Yrotation Zrotation
						JOINT right_shoulder
						{
							OFFSET	93.9	-5.79999	48.7
							CHANNELS 3  Xrotation Yrotation Zrotation
							JOINT right_elbow
							{
								OFFSET	291.4	-30.8	15.2
								CHANNELS 3  Xrotation Yrotation Zrotation
								JOINT right_lowarm_twist
								{
									OFFSET	110.7	-3.89999	13.6
									CHANNELS 3  Xrotation Yrotation Zrotation
									JOINT right_hand
									{
										OFFSET	110.7	-3.89999	13.6
										CHANNELS 3  Xrotation Yrotation Zrotation
										JOINT right_ee
										{
											OFFSET	80.8	-5.10001	12.1
											CHANNELS 3  Xrotation Yrotation Zrotation
											End Site
											{
												OFFSET	1	0	0
											}
										}
									}
								}
							}
						}
					}
				}
			}
		}
	}
	JOINT left_hip
	{
		OFFSET	-82.8	-127.5	0.300001
		CHANNELS 3  Xrotation Yrotation Zrotation
		JOINT left_knee
		{
			OFFSET	-28.2	-396.7	2.2
			CHANNELS 3  Xrotation Yrotation Zrotation
			JOINT left_ankle
			{
				OFFSET	-11.7	-411.3	35.4
				CHANNELS 3  Xrotation Yrotation Zrotation
				JOINT left_toes
				{
					OFFSET	0	-60	-88.6
					CHANNELS 3  Xrotation Yrotation Zrotation
					JOINT left_foot_ee
					{
						OFFSET	-22.5	-16.5	-42.2
						CHANNELS 3  Xrotation Yrotation Zrotation
						End Site
						{
							OFFSET	1	0	0
						}
					}
				}
			}
		}
	}
	JOINT right_hip
	{
		OFFSET	82.8	-127.5	0.300001
		CHANNELS 3  Xrotation Yrotation Zrotation
		JOINT right_knee
		{
			OFFSET	28.2	-396.7	2.2
			CHANNELS 3  Xrotation Yrotation Zrotation
			JOINT right_ankle
			{
				OFFSET	11.7	-411.3	35.4
				CHANNELS 3  Xrotation Yrotation Zrotation
				JOINT right_toes
				{
					OFFSET	0	-60	-88.6
					CHANNELS 3  Xrotation Yrotation Zrotation
					JOINT right_foot_ee
					{
						OFFSET	22.5	-16.5	-42.2
						CHANNELS 3  Xrotation Yrotation Zrotation
						End Site
						{
							OFFSET	1	0	0
						}
					}
				}
			}
		}
	}
}
MOTION
Frames: 5
Frame Time: 0.02
825.969057466 603.554 -1642.39989257 0.540802469146 73.1967948805 3.33393627952 1.11367 -0.382393 -0.491534 1.11374 -0.350341 -0.51487 1.11696 -0.24552 -0.572318 1.11666 -0.332824 -0.526362 -12.4479 11.8285 5.0641 -12.5986 19.2691 8.29929 -0.0 0.0 -0.0 3.16611 22.7751 7.04976 6.66782 -13.7267 67.0938 2.23086 -47.8518 0.98989 -62.4222 -5.58543 5.17018 0.366135 7.8403 5.64296 -0.0 0.0 -0.0 11.035 -5.72067 -21.3245 -17.3702 -0.827849 -58.3192 0.388641 10.8975 -0.0370714 -49.1955 3.97781 -4.64017 -6.36074 -28.7144 23.9491 0.0 0.0 0.0 -0.723283 14.531 -7.08328 9.21308 -0.487374 -1.32738 18.4559 -14.865 -2.73838 -13.9875 0.0 0.0 -0.0 0.0 -0.0 17.6863 3.84679 -5.42858 -37.5935 0.320811 -5.65843 32.3629 -20.8689 4.28012 -3.37135 0.0 0.0 0.0 0.0 0.0 
825.791566267 603.554 -1643.36742898 0.532885933084 72.9395876291 3.34221150992 1.11367 -0.382393 -0.491534 1.11374 -0.350341 -0.51487 1.11696 -0.24552 -0.572318 1.11666 -0.332824 -0.526362 -12.4479 11.8285 5.0641 -12.5986 19.2691 8.29929 -0.0 0.0 -0.0 3.16611 22.7751 7.04976 6.66782 -13.7267 67.0938 2.23086 -47.8518 0.98989 -62.4222 -5.58543 5.17018 0.366135 7.8403 5.64296 -0.0 0.0 -0.0 11.035 -5.72067 -21.3245 -17.3702 -0.827849 -58.3192 0.388641 10.8975 -0.0370714 -49.1955 3.97781 -4.64017 -6.36074 -28.7144 23.9491 0.0 0.0 0.0 -0.723283 14.531 -7.08328 9.21308 -0.487374 -1.32738 18.4559 -14.865 -2.73838 -13.9875 0.0 0.0 -0.0 0.0 -0.0 17.6863 3.84679 -5.42858 -37.5935 0.320811 -5.65843 32.3629 -20.8689 4.28012 -3.37135 0.0 0.0 0.0 0.0 0.0 
819.955489253 606.601 -1639.87255754 -1.92198194543 73.9463942884 5.44004249737 0.990091 -0.248044 -0.524927 0.990219 -0.214139 -0.539646 0.992305 -0.105844 -0.57085 0.991904 -0.19467 -0.546971 -12.3578 12.4533 5.63847 -12.5068 20.0814 9.01477 -0.0 0.0 -0.0 3.25992 22.5688 7.17812 7.386 -14.8247 67.4337 2.29379 -48.6432 1.03684 -61.861 -5.51506 5.15534 0.545853 6.72807 6.37524 -0.0 0.0 -0.0 11.0014 -6.84315 -21.136 -17.3125 -1.14408 -57.9604 0.406421 11.3833 -0.0405067 -48.6073 3.90947 -4.60809 -6.34106 -28.9926 23.585 0.0 0.0 0.0 0.514397 15.0324 -6.70395 6.50293 -0.321862 -0.945128 19.6633 -15.1971 -2.90639 -13.8757 0.0 0.0 -0.0 0.0 -0.0 17.6171 4.72314 -4.82458 -30.5466 -0.022744 -4.63261 29.7125 -12.7188 3.88244 -5.69046 0.0 0.0 0.0 0.0 0.0 
816.840176712 609.263 -1639.57379755 -2.29989462136 74.1116343235 5.4873559671 0.910536 -0.189971 -0.565816 0.910701 -0.153583 -0.576757 0.912318 -0.038424 -0.595617 0.911847 -0.132007 -0.582074 -12.5078 11.8306 6.12224 -12.6105 18.612 9.30646 -0.0 0.0 -0.0 3.57302 22.7945 7.62114 7.54199 -14.8616 66.9717 2.32582 -49.0367 1.06095 -63.1849 -5.68129 5.18924 0.391039 7.35941 5.61338 -0.0 0.0 -0.0 10.9628 -8.17255 -20.9061 -17.4089 -1.15513 -57.9897 0.456034 12.73 -0.0508704 -48.4709 3.89368 -4.60055 -6.25257 -28.661 23.3417 0.0 0.0 0.0 0.485966 15.53 -6.4522 5.95305 -0.290505 -0.866658 18.7848 -12.3975 -2.73741 -13.8071 0.0 0.0 -0.0 0.0 -0.0 18.3525 4.9473 -5.20604 -23.309 -0.241689 -3.54419 27.9851 -13.6379 3.69859 -6.8503 0.0 0.0 0.0 0.0 0.0 
809.375067596 609.107 -1638.29777495 -3.45961822832 74.4165942132 6.63742356939 0.896324 -0.0853703 -0.57444 0.896507 -0.0486448 -0.578708 0.897049 0.0650469 -0.577095 0.896586 -0.0269092 -0.580125 -12.7175 11.6075 6.4265 -12.8029 18.0301 9.55887 -0.0 0.0 -0.0 3.67862 23.0729 7.77038 7.40957 -15.753 67.2536 2.46533 -50.6804 1.16761 -63.6751 -5.74303 5.20081 0.429897 7.66474 5.98875 -0.0 0.0 -0.0 10.8782 -8.3306 -20.7228 -17.7118 -1.32547 -57.647 0.452159 12.6253 -0.05002 -47.8661 3.82383 -4.56667 -6.18559 -28.5236 23.0568 0.0 0.0 0.0 0.573935 15.9434 -6.33839 5.05976 -0.241179 -0.738565 18.9139 -10.2952 -2.72083 -13.7944 0.0 0.0 -0.0 0.0 -0.0 18.7911 5.1024 -5.55422 -20.1938 -0.293285 -3.069 26.42 -13.9424 3.52296 -8.42462 0.0 0.0 0.0 0.0 0.0 
